<!DOCTYPE svg PUBLIC "-//W3C//DTD SVG 1.1//EN" "http://www.w3.org/Graphics/SVG/1.1/DTD/svg11.dtd">
<!-- Uploaded to: SVG Repo, www.svgrepo.com, Transformed by: SVG Repo Mixer Tools -->
<svg version="1.1" id="Layer_1" xmlns="http://www.w3.org/2000/svg" xmlns:xlink="http://www.w3.org/1999/xlink" viewBox="0 0 490 490" xml:space="preserve" width="800px" height="800px" fill="#000000">
<g id="SVGRepo_bgCarrier" stroke-width="0"/>
<g id="SVGRepo_tracerCarrier" stroke-linecap="round" stroke-linejoin="round"/>
<g id="SVGRepo_iconCarrier"> <g> <g id="XMLID_94_"> <g> <rect x="360" y="145" style="fill:#43B05C;" width="70" height="315"/> <rect x="360" y="100" style="fill:#13803B;" width="70" height="45"/> <rect x="260" y="235" style="fill:#AFB6BB;" width="70" height="225"/> <rect x="260" y="190" style="fill:#7F858A;" width="70" height="45"/> <rect x="160" y="295" style="fill:#43B05C;" width="70" height="165"/> <rect x="160" y="250" style="fill:#13803B;" width="70" height="45"/> <rect x="60" y="365" style="fill:#AFB6BB;" width="70" height="95"/> <rect x="60" y="320" style="fill:#7F858A;" width="70" height="45"/> </g> <path style="fill:#231F20;" d="M440,450V100c0-5.522-4.477-10-10-10h-70c-5.523,0-10,4.478-10,10v350h-10V190 c0-5.522-4.477-10-10-10h-70c-5.523,0-10,4.478-10,10v260h-10V250c0-5.522-4.477-10-10-10h-70c-5.523,0-10,4.478-10,10v200h-10 V320c0-5.522-4.477-10-10-10H60c-5.523,0-10,4.478-10,10v130H0v20h490v-20H440z M420,110v25h-50v-25H420z M320,200v25h-50v-25H320 z M220,260v25h-50v-25H220z M120,330v25H70v-25H120z M70,450v-75h50v75H70z M170,450V305h50v145H170z M270,450V245h50v205H270z M370,450V155h50v295H370z"/> </g> <path style="fill:#231F20;" d="M295,20h-65v20h40.857L42.929,267.929l14.143,14.143L285,54.143V90h20V30 C305,24.478,300.523,20,295,20z"/> </g> </g>
</svg>